<?xml version="1.0" standalone="no"?>
<!DOCTYPE svg PUBLIC "-//W3C//DTD SVG 20010904//EN"
 "http://www.w3.org/TR/2001/REC-SVG-20010904/DTD/svg10.dtd">
<svg version="1.0" xmlns="http://www.w3.org/2000/svg"
 width="32.000000pt" height="32.000000pt" viewBox="0 0 32.000000 32.000000"
 preserveAspectRatio="xMidYMid meet">

<g transform="translate(0.000000,32.000000) scale(0.100000,-0.100000)"
fill="#000000" stroke="none">
<path d="M10 155 c0 -75 2 -85 18 -84 10 0 12 3 5 6 -18 7 -18 149 0 156 7 3
5 6 -5 6 -16 1 -18 -9 -18 -84z"/>
<path d="M288 233 c8 -3 12 -29 12 -78 0 -49 -4 -75 -12 -78 -8 -3 -6 -6 5 -6
15 -1 17 9 17 84 0 75 -2 85 -17 84 -11 0 -13 -3 -5 -6z"/>
<path d="M70 166 l0 -66 29 0 c34 0 56 23 46 47 -4 10 -8 32 -9 48 -1 26 -5
30 -33 33 l-33 3 0 -65z m54 45 c10 -16 -5 -41 -25 -41 -14 0 -19 7 -19 25 0
18 5 25 19 25 11 0 22 -4 25 -9z m6 -76 c0 -20 -5 -25 -25 -25 -20 0 -25 5
-25 25 0 20 5 25 25 25 20 0 25 -5 25 -25z"/>
<path d="M182 163 c0 -37 3 -53 5 -35 5 41 31 42 46 2 6 -17 15 -30 19 -30 11
0 10 7 -7 40 -10 19 -12 30 -5 30 6 0 10 12 8 28 -2 22 -8 28 -35 30 l-33 3 2
-68z m53 32 c0 -13 -8 -21 -22 -23 -19 -3 -23 1 -23 23 0 22 4 26 23 23 14 -2
22 -10 22 -23z"/>
</g>
</svg>
